<svg width="641" height="513" viewBox="0 0 641 513" fill="none" xmlns="http://www.w3.org/2000/svg">
<path d="M200.549 55.0109H284.549V512.011H200.549V55.0109Z" fill="#8257E6"/>
<path d="M64.83 192.197L146.656 159.466C150.146 158.062 153.085 155.562 155.031 152.343C156.977 149.124 157.825 145.36 157.447 141.618L151.821 85.2602C210.401 64.2204 274.476 64.2204 333.056 85.2602L327.43 141.618C327.045 145.361 327.89 149.129 329.837 152.349C331.784 155.57 334.727 158.068 338.221 159.466L420.047 192.197C423.834 193.683 428.021 193.802 431.886 192.532C435.751 191.263 439.052 188.684 441.219 185.241L482.132 119.781C484.212 116.451 485.103 112.516 484.658 108.616C484.213 104.716 482.459 101.081 479.683 98.3063C348.505 -32.871 136.065 -32.6665 5.09191 98.3063C2.31357 101.081 0.558143 104.716 0.112286 108.617C-0.333571 112.518 0.556499 116.456 2.63714 119.786L43.5501 185.246C45.7355 188.699 49.0558 191.281 52.9397 192.55C56.8236 193.818 61.0283 193.693 64.83 192.197Z" fill="#8257E6"/>
<path d="M328.288 453.728C322.528 453.728 317.392 452.816 312.88 450.992C308.368 449.072 304.528 446.432 301.36 443.072C298.288 439.616 295.936 435.44 294.304 430.544C292.768 425.648 292 420.176 292 414.128C292 408.176 292.768 402.8 294.304 398C295.84 393.104 298.096 388.928 301.072 385.472C304.144 382.016 307.888 379.376 312.304 377.552C316.72 375.632 321.76 374.672 327.424 374.672C333.664 374.672 338.992 375.728 343.408 377.84C347.92 379.952 351.568 382.784 354.352 386.336C357.232 389.888 359.296 394.016 360.544 398.72C361.888 403.328 362.56 408.176 362.56 413.264V419.6H314.032V420.752C314.032 425.744 315.376 429.728 318.064 432.704C320.752 435.584 324.976 437.024 330.736 437.024C335.152 437.024 338.752 436.16 341.536 434.432C344.32 432.608 346.912 430.448 349.312 427.952L359.968 441.2C356.608 445.136 352.192 448.208 346.72 450.416C341.344 452.624 335.2 453.728 328.288 453.728ZM327.856 390.368C323.536 390.368 320.128 391.808 317.632 394.688C315.232 397.472 314.032 401.216 314.032 405.92V407.072H340.528V405.776C340.528 401.168 339.472 397.472 337.36 394.688C335.344 391.808 332.176 390.368 327.856 390.368Z" fill="white"/>
<path d="M413.179 452C405.883 452 400.507 450.224 397.051 446.672C393.691 443.12 392.011 437.984 392.011 431.264V345.44H413.323V435.44H422.827V452H413.179Z" fill="white"/>
<path d="M446.529 452V435.152L484.113 392.96H447.825V376.4H508.881V393.104L471.153 435.44H509.889V452H446.529Z" fill="white"/>
<path d="M550.436 368.336C546.116 368.336 542.948 367.376 540.932 365.456C539.012 363.44 538.052 360.896 538.052 357.824V354.656C538.052 351.584 539.012 349.088 540.932 347.168C542.948 345.152 546.116 344.144 550.436 344.144C554.756 344.144 557.876 345.152 559.796 347.168C561.812 349.088 562.82 351.584 562.82 354.656V357.824C562.82 360.896 561.812 363.44 559.796 365.456C557.876 367.376 554.756 368.336 550.436 368.336ZM539.78 376.4H561.092V452H539.78V376.4Z" fill="white"/>
<path d="M595.383 452V376.4H616.695V392.816H617.415C617.799 390.704 618.471 388.688 619.431 386.768C620.391 384.752 621.639 382.976 623.175 381.44C624.807 379.904 626.727 378.704 628.935 377.84C631.143 376.88 633.735 376.4 636.711 376.4H640.455V396.272H635.127C628.887 396.272 624.231 397.088 621.159 398.72C618.183 400.352 616.695 403.376 616.695 407.792V452H595.383Z" fill="white"/>
<path d="M316.157 509.385C315.27 510.233 314.15 510.893 312.796 511.364C311.489 511.788 310.112 512 308.665 512C305.49 512 303.04 511.128 301.313 509.385C299.585 507.595 298.722 505.122 298.722 501.965V477.868H292V474.829H298.722V466.773H302.223V474.829H313.846V477.868H302.223V501.612C302.223 504.015 302.783 505.852 303.903 507.124C305.07 508.349 306.774 508.961 309.015 508.961C311.302 508.961 313.193 508.278 314.686 506.912L316.157 509.385Z" fill="#808080"/>
<path d="M362.502 494.121H331.063C331.156 496.995 331.88 499.563 333.233 501.824C334.587 504.038 336.408 505.758 338.695 506.983C341.029 508.208 343.643 508.82 346.537 508.82C348.918 508.82 351.112 508.396 353.119 507.548C355.173 506.653 356.877 505.357 358.23 503.661L360.261 505.993C358.674 507.925 356.667 509.409 354.239 510.445C351.859 511.482 349.268 512 346.467 512C342.826 512 339.582 511.199 336.734 509.597C333.887 507.996 331.646 505.781 330.012 502.955C328.425 500.128 327.632 496.901 327.632 493.273C327.632 489.693 328.379 486.489 329.872 483.663C331.413 480.789 333.513 478.551 336.174 476.949C338.835 475.348 341.822 474.547 345.137 474.547C348.451 474.547 351.415 475.348 354.029 476.949C356.69 478.504 358.767 480.695 360.261 483.521C361.801 486.348 362.572 489.552 362.572 493.132L362.502 494.121ZM345.137 477.656C342.569 477.656 340.259 478.245 338.205 479.423C336.151 480.553 334.494 482.179 333.233 484.299C332.02 486.372 331.32 488.727 331.133 491.365H359.141C359.001 488.727 358.3 486.372 357.04 484.299C355.78 482.226 354.123 480.6 352.069 479.423C350.015 478.245 347.704 477.656 345.137 477.656Z" fill="#808080"/>
<path d="M380.404 459.283H383.905V511.717H380.404V459.283Z" fill="#808080"/>
<path d="M436.542 494.121H405.103C405.196 496.995 405.92 499.563 407.274 501.824C408.627 504.038 410.448 505.758 412.735 506.983C415.069 508.208 417.683 508.82 420.577 508.82C422.958 508.82 425.152 508.396 427.159 507.548C429.213 506.653 430.917 505.357 432.271 503.661L434.301 505.993C432.714 507.925 430.707 509.409 428.28 510.445C425.899 511.482 423.308 512 420.507 512C416.866 512 413.622 511.199 410.775 509.597C407.927 507.996 405.687 505.781 404.053 502.955C402.466 500.128 401.672 496.901 401.672 493.273C401.672 489.693 402.419 486.489 403.913 483.663C405.453 480.789 407.554 478.551 410.215 476.949C412.875 475.348 415.863 474.547 419.177 474.547C422.491 474.547 425.456 475.348 428.07 476.949C430.73 478.504 432.808 480.695 434.301 483.521C435.842 486.348 436.612 489.552 436.612 493.132L436.542 494.121ZM419.177 477.656C416.61 477.656 414.299 478.245 412.245 479.423C410.191 480.553 408.534 482.179 407.274 484.299C406.06 486.372 405.36 488.727 405.173 491.365H433.181C433.041 488.727 432.341 486.372 431.08 484.299C429.82 482.226 428.163 480.6 426.109 479.423C424.055 478.245 421.744 477.656 419.177 477.656Z" fill="#808080"/>
<path d="M465.438 462.039C460.863 462.039 458.576 464.512 458.576 469.459V474.829H470.269V477.868H458.646V511.717H455.145V477.868H448.423V474.829H455.145V469.176C455.145 466.067 456.032 463.593 457.806 461.756C459.579 459.919 462.077 459 465.298 459C466.698 459 468.028 459.212 469.289 459.636C470.596 460.013 471.669 460.602 472.51 461.403L471.109 464.088C469.615 462.722 467.725 462.039 465.438 462.039Z" fill="#808080"/>
<path d="M498.09 512C494.636 512 491.509 511.199 488.708 509.597C485.954 507.996 483.783 505.781 482.196 502.955C480.609 500.081 479.815 496.854 479.815 493.273C479.815 489.693 480.609 486.489 482.196 483.663C483.783 480.789 485.954 478.551 488.708 476.949C491.509 475.348 494.636 474.547 498.09 474.547C501.545 474.547 504.649 475.348 507.403 476.949C510.204 478.551 512.398 480.789 513.985 483.663C515.572 486.489 516.365 489.693 516.365 493.273C516.365 496.854 515.572 500.081 513.985 502.955C512.398 505.781 510.204 507.996 507.403 509.597C504.649 511.199 501.545 512 498.09 512ZM498.09 508.82C500.891 508.82 503.389 508.16 505.582 506.841C507.823 505.522 509.574 503.685 510.834 501.329C512.141 498.974 512.794 496.288 512.794 493.273C512.794 490.258 512.141 487.573 510.834 485.217C509.574 482.862 507.823 481.024 505.582 479.705C503.389 478.386 500.891 477.727 498.09 477.727C495.29 477.727 492.769 478.386 490.528 479.705C488.334 481.024 486.584 482.862 485.277 485.217C484.016 487.573 483.386 490.258 483.386 493.273C483.386 496.288 484.016 498.974 485.277 501.329C486.584 503.685 488.334 505.522 490.528 506.841C492.769 508.16 495.29 508.82 498.09 508.82Z" fill="#808080"/>
<path d="M552.084 474.547C556.658 474.547 560.276 475.889 562.937 478.575C565.598 481.26 566.928 485.123 566.928 490.164V511.717H563.427V490.447C563.427 486.301 562.377 483.144 560.276 480.977C558.222 478.81 555.328 477.727 551.594 477.727C547.299 477.727 543.915 479.022 541.441 481.613C538.967 484.204 537.73 487.691 537.73 492.072V511.717H534.229V474.829H537.59V482.815C538.85 480.224 540.717 478.198 543.191 476.737C545.712 475.277 548.676 474.547 552.084 474.547Z" fill="#808080"/>
<path d="M588.344 474.829H591.845V511.717H588.344V474.829ZM590.094 465.855C589.3 465.855 588.624 465.596 588.063 465.077C587.503 464.512 587.223 463.829 587.223 463.028C587.223 462.227 587.503 461.544 588.063 460.979C588.624 460.413 589.3 460.131 590.094 460.131C590.888 460.131 591.564 460.413 592.125 460.979C592.685 461.497 592.965 462.156 592.965 462.957C592.965 463.758 592.685 464.441 592.125 465.007C591.564 465.572 590.888 465.855 590.094 465.855Z" fill="#808080"/>
<path d="M625.926 474.547C630.454 474.547 633.932 475.724 636.359 478.08C638.786 480.388 640 483.804 640 488.327V511.717H636.639V505.145C635.472 507.312 633.768 509.008 631.528 510.233C629.287 511.411 626.603 512 623.475 512C619.414 512 616.193 511.034 613.813 509.103C611.479 507.171 610.312 504.627 610.312 501.471C610.312 498.408 611.385 495.935 613.533 494.051C615.727 492.119 619.204 491.153 623.965 491.153H636.499V488.185C636.499 484.746 635.565 482.132 633.698 480.341C631.878 478.551 629.194 477.656 625.646 477.656C623.219 477.656 620.885 478.08 618.644 478.928C616.45 479.776 614.583 480.907 613.042 482.32L611.292 479.776C613.112 478.127 615.306 476.855 617.874 475.96C620.441 475.018 623.125 474.547 625.926 474.547ZM623.965 509.103C627 509.103 629.567 508.396 631.668 506.983C633.815 505.569 635.425 503.52 636.499 500.835V493.909H624.036C620.441 493.909 617.827 494.569 616.193 495.888C614.606 497.207 613.813 499.021 613.813 501.329C613.813 503.732 614.7 505.64 616.473 507.053C618.247 508.42 620.745 509.103 623.965 509.103Z" fill="#808080"/>
</svg>
